HIERARCHY
ROOT Hips
{
 OFFSET 0.000000 0.000000 0.000000
 CHANNELS 6 Xposition Yposition Zposition Yrotation Xrotation Zrotation
 JOINT Chest
 {
  OFFSET 0.000000 9.585900 0.002600
  CHANNELS 3 Yrotation Xrotation Zrotation
  JOINT Chest2
  {
   OFFSET 0.000000 9.601200 -0.005300
   CHANNELS 3 Yrotation Xrotation Zrotation
   JOINT Chest3
   {
    OFFSET 0.000000 9.561800 0.000000
    CHANNELS 3 Yrotation Xrotation Zrotation
    JOINT Chest4
    {
     OFFSET 0.000000 9.552100 0.000000
     CHANNELS 3 Yrotation Xrotation Zrotation
     JOINT Neck
     {
      OFFSET 0.000000 14.453000 0.000000
      CHANNELS 3 Yrotation Xrotation Zrotation
      JOINT Head
      {
       OFFSET 0.000000 8.936500 -0.011300
       CHANNELS 3 Yrotation Xrotation Zrotation
       End Site
       {
        OFFSET 0.000000 17.073600 -0.006000
       }
      }
     }
     JOINT RightCollar
     {
      OFFSET -2.921100 9.558500 0.000000
      CHANNELS 3 Yrotation Xrotation Zrotation
      JOINT RightShoulder
      {
       OFFSET -13.519700 0.000000 0.000000
       CHANNELS 3 Yrotation Xrotation Zrotation
       JOINT RightElbow
       {
        OFFSET 0.000000 -29.696600 0.000000
        CHANNELS 3 Yrotation Xrotation Zrotation
        JOINT RightWrist
        {
         OFFSET 0.000000 -24.004700 0.000000
         CHANNELS 3 Yrotation Xrotation Zrotation
         End Site
         {
          OFFSET 0.000000 -17.728500 0.000000
         }
        }
       }
      }
     }
     JOINT LeftCollar
     {
      OFFSET 2.921100 9.558500 0.000000
      CHANNELS 3 Yrotation Xrotation Zrotation
      JOINT LeftShoulder
      {
       OFFSET 13.519700 0.000000 0.000000
       CHANNELS 3 Yrotation Xrotation Zrotation
       JOINT LeftElbow
       {
        OFFSET 0.000000 -29.696600 0.000000
        CHANNELS 3 Yrotation Xrotation Zrotation
        JOINT LeftWrist
        {
         OFFSET 0.000000 -24.004700 0.000000
         CHANNELS 3 Yrotation Xrotation Zrotation
         End Site
         {
          OFFSET 0.000000 -17.728500 0.000000
         }
        }
       }
      }
     }
    }
   }
  }
 }
 JOINT RightHip
 {
  OFFSET -7.771700 -0.012900 -0.001300
  CHANNELS 3 Yrotation Xrotation Zrotation
  JOINT RightKnee
  {
   OFFSET 0.000000 -40.869800 0.001200
   CHANNELS 3 Yrotation Xrotation Zrotation
   JOINT RightAnkle
   {
    OFFSET 0.000000 -39.717900 0.002100
    CHANNELS 3 Yrotation Xrotation Zrotation
    JOINT RightToe
    {
     OFFSET 0.000000 -4.965400 11.033500
     CHANNELS 3 Yrotation Xrotation Zrotation
     End Site
     {
      OFFSET 0.000000 -1.423100 5.872300
     }
    }
   }
  }
 }
 JOINT LeftHip
 {
  OFFSET 7.771700 -0.012900 -0.001300
  CHANNELS 3 Yrotation Xrotation Zrotation
  JOINT LeftKnee
  {
   OFFSET 0.000000 -40.869800 0.001200
   CHANNELS 3 Yrotation Xrotation Zrotation
   JOINT LeftAnkle
   {
    OFFSET 0.000000 -39.717900 0.002100
    CHANNELS 3 Yrotation Xrotation Zrotation
    JOINT LeftToe
    {
     OFFSET 0.000000 -4.965400 11.033500
     CHANNELS 3 Yrotation Xrotation Zrotation
     End Site
     {
      OFFSET 0.000000 -1.423100 5.872300
     }
    }
   }
  }
 }
}
MOTION
Frames: 16
Frame Time: 0.008333
-4.918871 55.163771 29.292216 178.158862 -30.634331 -10.549130 -0.083619 11.575292 5.174368 -0.138559 6.596463 1.937473 -0.181226 8.247256 2.446982 -0.158620 6.597338 1.947080 2.950576 21.825505 -0.788034 3.326037 -2.371836 -1.491192 2.321442 2.967483 -2.626096 -11.237538 -8.649541 7.032038 52.872781 -79.954349 -38.265497 10.958891 -7.350095 -10.435670 -9.203323 3.909525 -3.395063 6.228431 -4.239082 -2.213592 -92.724201 -77.232139 99.890391 13.759197 -12.985460 0.666172 -16.987767 -35.742891 5.628777 30.096501 86.883801 27.043091 1.849354 -17.125666 0.733419 -0.071054 0.466535 -0.045852 -17.210414 -46.957070 18.491669 169.755020 79.492442 165.200655 -1.545581 -15.735822 0.108119 -0.902820 -2.494220 -0.390425
-4.916456 55.171993 29.290573 178.165480 -30.630265 -10.555122 -0.072679 11.570204 5.171928 -0.139001 6.601647 1.937995 -0.167429 8.237476 2.442122 -0.152453 6.595171 1.945442 2.852397 21.889173 -0.782237 3.231478 -2.310676 -1.472466 2.296952 3.035193 -2.590783 -11.238768 -8.675887 7.120325 52.716529 -79.931749 -38.252140 10.973128 -7.373059 -10.429253 -9.233700 3.927869 -3.380603 6.231640 -4.249527 -2.243660 -92.821045 -77.255646 99.986914 13.766628 -12.984706 0.736858 -17.006173 -35.741807 5.638623 30.104075 86.883001 27.048342 1.848287 -17.126212 0.730264 -0.070151 0.466197 -0.038786 -17.214824 -46.956173 18.505652 169.792738 79.493070 165.231850 -1.559972 -15.744231 0.116383 -0.898695 -2.490961 -0.388596
-4.913576 55.179888 29.289323 178.174151 -30.614373 -10.563689 -0.068252 11.561170 5.173180 -0.143813 6.605130 1.937086 -0.156590 8.231554 2.437964 -0.149692 6.594055 1.943549 2.763896 21.950030 -0.771619 3.141282 -2.249287 -1.450877 2.286188 3.094941 -2.570645 -11.235503 -8.689116 7.218591 52.675939 -79.893302 -38.352066 11.002657 -7.381276 -10.412542 -9.265854 4.017025 -3.408923 6.225356 -4.343487 -2.245614 -92.856509 -77.308558 100.030457 13.762499 -12.960591 0.810114 -17.026251 -35.750017 5.656177 30.183686 86.878990 27.131858 1.813014 -17.129068 0.733166 -0.072752 0.467556 -0.037457 -17.232009 -46.966982 18.525240 169.824167 79.492311 165.257187 -1.564787 -15.749761 0.123336 -0.899327 -2.489506 -0.390393
-4.911059 55.187684 29.287771 178.172926 -30.595825 -10.564923 -0.061506 11.552115 5.170604 -0.149605 6.604293 1.938565 -0.148833 8.245456 2.430030 -0.145966 6.582625 1.948679 2.678467 22.005991 -0.761428 3.053942 -2.185605 -1.426161 2.281992 3.146577 -2.565233 -11.229773 -8.692200 7.322341 52.680880 -79.848800 -38.486936 11.038230 -7.378807 -10.383149 -9.285384 4.080421 -3.422356 6.204313 -4.420945 -2.268927 -92.811198 -77.374897 100.000528 13.745759 -12.905450 0.867850 -17.035641 -35.765004 5.666152 30.219015 86.878493 27.180206 1.784278 -17.129643 0.729056 -0.051407 0.467357 -0.037653 -17.239650 -46.980476 18.541208 169.858709 79.493174 165.288564 -1.573662 -15.756939 0.125233 -0.892707 -2.486901 -0.389141
-4.907918 55.196248 29.284806 178.164016 -30.585951 -10.567511 -0.057596 11.554973 5.169965 -0.144778 6.593992 1.944296 -0.151430 8.249855 2.427257 -0.138610 6.587559 1.948191 2.592292 22.062816 -0.751594 2.969219 -2.120398 -1.398212 2.283523 3.196716 -2.567456 -11.225696 -8.687996 7.427222 52.688222 -79.804917 -38.615639 11.074410 -7.367147 -10.335510 -9.297303 4.130732 -3.432500 6.142773 -4.477139 -2.329724 -92.722643 -77.417342 99.962265 13.718707 -12.814558 0.888388 -17.037372 -35.772122 5.667531 30.460722 86.868783 27.427257 1.834194 -17.123894 0.704009 -0.049265 0.462804 -0.031228 -17.241804 -46.983503 18.569016 169.909457 79.492159 165.327634 -1.583699 -15.765158 0.134221 -0.893462 -2.486978 -0.385663
-4.905487 55.204543 29.281546 178.153800 -30.577356 -10.568608 -0.054690 11.555281 5.170113 -0.144565 6.593823 1.943569 -0.145574 8.242718 2.430994 -0.144500 6.593860 1.943642 2.513526 22.125830 -0.738261 2.883760 -2.056328 -1.367724 2.294551 3.219522 -2.566115 -11.216437 -8.649751 7.519495 52.664561 -79.771445 -38.707764 11.102640 -7.356340 -10.264574 -9.296639 4.185424 -3.439923 6.089131 -4.522353 -2.371565 -92.683482 -77.494525 99.957017 13.679118 -12.684075 0.870168 -17.040166 -35.776704 5.673389 30.561343 86.863988 27.519835 1.904038 -17.124440 0.684084 -0.043632 0.463990 -0.025882 -17.240731 -46.984153 18.592213 169.960320 79.491917 165.369106 -1.595717 -15.779061 0.141264 -0.890044 -2.482133 -0.381797
-4.905021 55.211582 29.279002 178.148798 -30.562982 -10.565605 -0.067422 11.566985 5.155459 -0.143027 6.596827 1.943148 -0.138658 8.230617 2.435221 -0.149722 6.607814 1.939638 2.444426 22.169297 -0.722974 2.792701 -1.994714 -1.335405 2.316461 3.222712 -2.563538 -11.206705 -8.611517 7.603704 52.578820 -79.759921 -38.734195 11.115876 -7.353752 -10.166757 -9.280591 4.188944 -3.434888 6.050565 -4.527752 -2.402417 -92.703110 -77.604138 99.982612 13.625083 -12.514956 0.824367 -17.049704 -35.788012 5.682654 30.476119 86.866963 27.435480 1.894215 -17.129650 0.681286 -0.043993 0.468121 -0.024478 -17.231665 -46.992169 18.603564 170.023088 79.495707 165.426418 -1.614529 -15.798196 0.148298 -0.879475 -2.469163 -0.375907
-4.904967 55.218034 29.276500 178.144073 -30.551510 -10.566295 -0.066990 11.561631 5.155248 -0.142226 6.605873 1.941106 -0.141417 8.249077 2.431754 -0.141749 6.594196 1.944768 2.356658 22.220651 -0.711059 2.695598 -1.937480 -1.302464 2.322362 3.263377 -2.564477 -11.205151 -8.601220 7.682614 52.408825 -79.780513 -38.667703 11.112489 -7.360645 -10.047183 -9.282910 4.198390 -3.434999 6.023844 -4.524537 -2.426766 -92.775656 -77.734221 100.039560 13.559498 -12.316485 0.753268 -17.054620 -35.796157 5.697148 30.355562 86.870513 27.323244 1.841659 -17.133646 0.690244 -0.045890 0.470829 -0.025323 -17.232662 -47.002125 18.615579 170.048986 79.491750 165.446420 -1.614736 -15.801255 0.149968 -0.886956 -2.472603 -0.373141
-4.906124 55.223528 29.274260 178.142542 -30.541486 -10.567834 -0.067950 11.558377 5.153881 -0.139466 6.616388 1.939656 -0.140454 8.241689 2.435584 -0.138733 6.613163 1.943718 2.264480 22.262379 -0.700116 2.594373 -1.886020 -1.270150 2.310370 3.362146 -2.568307 -11.201730 -8.655830 7.764690 52.146141 -79.837826 -38.489471 11.091676 -7.377568 -9.920156 -9.292162 4.226345 -3.434447 6.007376 -4.545004 -2.448065 -92.889838 -77.873432 100.124816 13.489970 -12.097542 0.657320 -17.059598 -35.804033 5.708232 30.264741 86.873931 27.234176 1.810777 -17.137106 0.699576 -0.033756 0.472694 -0.026620 -17.233475 -47.011100 18.623072 170.085008 79.488699 165.475753 -1.608688 -15.807712 0.156501 -0.888958 -2.472285 -0.378996
-4.907828 55.228217 29.272292 178.142953 -30.534435 -10.573708 -0.064457 11.576402 5.148695 -0.137991 6.604630 1.947049 -0.140522 8.239487 2.439376 -0.137130 6.615045 1.943568 2.170817 22.318050 -0.693087 2.488593 -1.838433 -1.237933 2.293214 3.414177 -2.566443 -11.190943 -8.668844 7.808052 51.722788 -79.918227 -38.132644 11.052416 -7.404991 -9.798086 -9.307162 4.317387 -3.443072 6.005970 -4.631398 -2.457730 -92.948941 -78.021305 100.139389 13.429488 -11.869585 0.541771 -17.067098 -35.808799 5.717650 30.275110 86.875287 27.245042 1.797184 -17.139131 0.703439 -0.040757 0.473666 -0.026562 -17.232988 -47.018404 18.630467 170.084871 79.482594 165.474616 -1.615461 -15.814943 0.162309 -0.888061 -2.470961 -0.379217
-4.911227 55.231975 29.270470 178.144638 -30.530669 -10.576457 -0.065380 11.576402 5.148540 -0.137416 6.605543 1.947531 -0.126238 8.277185 2.431120 -0.145812 6.585585 1.953936 2.075101 22.370651 -0.687860 2.377575 -1.793353 -1.205341 2.269917 3.467565 -2.559219 -11.174341 -8.719642 7.824275 51.116636 -80.000355 -37.585172 10.998511 -7.445880 -9.691172 -9.315763 4.358459 -3.444873 5.999904 -4.667002 -2.466321 -93.015836 -78.162953 100.156777 13.385233 -11.648894 0.410126 -17.069644 -35.813047 5.718521 30.329024 86.877425 27.299206 1.789625 -17.142365 0.707523 -0.046118 0.474259 -0.025697 -17.220604 -47.024621 18.626095 170.083467 79.478186 165.476425 -1.629525 -15.825317 0.170540 -0.883083 -2.465914 -0.378364
-4.914328 55.234956 29.269504 178.140679 -30.527984 -10.584583 -0.055446 11.584586 5.151887 -0.133880 6.608781 1.949173 -0.119338 8.282987 2.435010 -0.135041 6.606945 1.951649 1.962656 22.391202 -0.676474 2.261435 -1.751794 -1.173273 2.239337 3.457433 -2.547563 -11.208984 -8.635478 7.867165 51.165193 -80.119509 -37.638448 10.935719 -7.503048 -9.614344 -9.343381 4.373316 -3.435262 5.982840 -4.659020 -2.490331 -93.311537 -78.279942 100.410932 13.347439 -11.447172 0.275984 -17.073536 -35.813728 5.730153 30.312141 86.876963 27.280987 1.791972 -17.149529 0.704383 -0.047560 0.480926 -0.020798 -17.181467 -47.037348 18.618052 170.079533 79.470103 165.489925 -1.641525 -15.833359 0.190515 -0.885510 -2.464060 -0.380162
-4.919571 55.236916 29.269086 178.151364 -30.522484 -10.593233 -0.047874 11.599566 5.149684 -0.134513 6.604561 1.955052 -0.120083 8.290245 2.438423 -0.128319 6.619639 1.952285 1.848964 22.419512 -0.669763 2.140426 -1.713712 -1.142275 2.193870 3.503164 -2.530244 -11.226352 -8.639010 7.885873 51.178240 -80.209904 -37.642095 10.856142 -7.570467 -9.591261 -9.369456 4.395734 -3.431848 5.987880 -4.708797 -2.493574 -93.390749 -78.417882 100.421641 13.305381 -11.272840 0.154844 -17.080540 -35.819144 5.733500 30.297331 86.880035 27.263981 1.790028 -17.153538 0.709287 -0.048171 0.482296 -0.018753 -17.170222 -47.049947 18.608729 170.059055 79.463207 165.477021 -1.652795 -15.840106 0.204093 -0.884441 -2.459853 -0.380872
-4.924056 55.239015 29.268599 178.150119 -30.524337 -10.605928 -0.042426 11.605445 5.160894 -0.124224 6.633149 1.952686 -0.120208 8.284746 2.445436 -0.124563 6.627483 1.954941 1.734146 22.453412 -0.667263 2.016258 -1.676817 -1.113264 2.153083 3.549873 -2.511317 -11.232705 -8.664774 7.891441 51.154337 -80.284308 -37.622470 10.804894 -7.642637 -9.606687 -9.392500 4.419018 -3.433575 5.988093 -4.730634 -2.498654 -93.626333 -78.538389 100.600552 13.266370 -11.131669 0.047500 -17.083276 -35.816492 5.744328 30.312460 86.879234 27.282270 1.785318 -17.154334 0.709940 -0.048458 0.483746 -0.017554 -17.156746 -47.054169 18.612851 170.034301 79.453408 165.459560 -1.665188 -15.845797 0.219121 -0.883495 -2.460011 -0.384301
-4.930318 55.240514 29.268354 178.150144 -30.525592 -10.613163 -0.039921 11.611340 5.165730 -0.122278 6.638262 1.954639 -0.116596 8.298087 2.448183 -0.120383 6.644661 1.959111 1.671594 22.449266 -0.670717 1.839104 -1.599666 -1.062741 2.120961 3.576699 -2.496329 -11.238338 -8.680279 7.894971 51.197935 -80.347385 -37.684197 10.784867 -7.715159 -9.647269 -9.406835 4.407564 -3.434851 5.981760 -4.725706 -2.495146 -93.854559 -78.644669 100.778288 13.235927 -11.026775 -0.043197 -17.084450 -35.817449 5.754137 30.266963 86.884007 27.230839 1.780094 -17.154958 0.720278 -0.049542 0.485313 -0.017757 -17.141181 -47.060964 18.609048 169.999152 79.443505 165.429199 -1.679038 -15.848309 0.234826 -0.882633 -2.463819 -0.387413
-4.937154 55.241879 29.268035 178.149864 -30.528317 -10.620260 -0.034748 11.626802 5.170422 -0.121779 6.635971 1.957937 -0.116523 8.295377 2.449385 -0.117808 6.657645 1.961844 1.527505 22.527756 -0.668632 1.736506 -1.575845 -1.053134 2.094840 3.623148 -2.478178 -11.237946 -8.699454 7.898003 51.441705 -80.379298 -37.924637 10.769545 -7.750240 -9.677881 -9.420033 4.414585 -3.439293 5.934752 -4.682003 -2.477987 -94.237052 -78.729610 101.159125 13.208271 -10.955831 -0.117144 -17.082706 -35.816912 5.771136 30.174438 86.888764 27.127365 1.755389 -17.155430 0.737509 -0.052828 0.484936 -0.016285 -17.127977 -47.065537 18.606144 169.972340 79.434053 165.405130 -1.691151 -15.851265 0.248858 -0.879964 -2.465688 -0.387754
